#!OML:ASF I:\golf\golf\golf 2\Subject 1\2002-09-07\Subject1.ASF
:FULLY-SPECIFIED
:DEGREES
190
root -10.8661 17.9528 4.67307 -2.88602 76.6951 -22.1711
lowerback 3.82374 1.04666 -3.04311
upperback 5.41282 1.41145 2.99939
thorax 3.30541 0.585598 4.80776
lowerneck -12.4252 0.475463 2.00941
upperneck 41.2274 4.5218 -5.46214
head 17.4226 1.95846 -1.89254
rclavicle -1.20016e-014 -2.32081e-014
rhumerus -14.0676 22.507 -98.6536
rradius 47.8831
rwrist -49.9049
rhand -33.0817 -8.21753
rfingers 7.12502
rthumb -6.29305 -38.104
lclavicle -1.20016e-014 -2.32081e-014
lhumerus -8.7224 -45.8767 104.859
lradius 43.2826
lwrist 49.2231
lhand -5.5611 62.9558
lfingers 7.12502
lthumb -159.746 88.0802
rfemur -34.5562 0.743253 16.8027
rtibia 27.9085
rfoot -7.37939 -2.25319
rtoes -8.09262
lfemur -31.3976 7.22345 -8.94604
ltibia 28.2115
lfoot -10.1028 3.53405
ltoes -16.7304
191
root -10.8613 17.9524 4.66875 -2.95348 76.7764 -22.2244
lowerback 3.80187 1.00731 -3.02047
upperback 5.44706 1.36062 3.01731
thorax 3.35901 0.559354 4.81571
lowerneck -12.4722 0.497014 1.96089
upperneck 41.2378 4.55786 -5.43421
head 17.4413 1.9676 -1.86456
rclavicle -1.47101e-014 4.99943e-014
rhumerus -14.089 22.71 -98.6146
rradius 47.9334
rwrist -49.8031
rhand -33.1303 -8.15746
rfingers 7.12502
rthumb -6.33998 -38.0426
lclavicle -1.47101e-014 4.99943e-014
lhumerus -8.6927 -45.8707 104.855
lradius 43.3459
lwrist 49.7368
lhand -5.74372 63.1407
lfingers 7.12502
lthumb -159.921 87.8768
rfemur -34.4763 0.756524 16.7496
rtibia 27.8532
rfoot -7.35319 -2.27997
rtoes -7.63598
lfemur -31.48 7.34803 -9.10268
ltibia 28.2436
lfoot -9.95634 3.63317
ltoes -18.9694
192
root -10.8571 17.9503 4.6647 -2.88173 76.8856 -22.1227
lowerback 3.82185 0.961046 -3.00919
upperback 5.47012 1.29977 3.01646
thorax 3.37861 0.52894 4.80933
lowerneck -12.5106 0.520216 1.89656
upperneck 41.2418 4.61184 -5.42887
head 17.456 1.97905 -1.84065
rclavicle -1.46604e-014 5.56597e-014
rhumerus -14.0827 22.7934 -98.6249
rradius 47.9062
rwrist -49.6524
rhand -33.1548 -8.19195
rfingers 7.12502
rthumb -6.36366 -38.0764
lclavicle -1.46604e-014 5.56597e-014
lhumerus -8.68357 -45.6964 104.818
lradius 43.2679
lwrist 49.4273
lhand -5.71639 63.0776
lfingers 7.12502
lthumb -159.895 87.9427
rfemur -34.4061 0.61381 16.7062
rtibia 27.8258
rfoot -7.36555 -2.2679
rtoes -7.25007
lfemur -31.5384 7.47262 -9.31627
ltibia 28.2354
lfoot -9.74778 3.76274
ltoes -21.3663
193
root -10.8546 17.9514 4.66425 -2.59605 76.9476 -21.8265
lowerback 3.84703 0.960794 -3.12129
upperback 5.46633 1.29726 3.02587
thorax 3.35921 0.523855 4.88234
lowerneck -12.5302 0.521342 1.90408
upperneck 41.2642 4.64086 -5.48354
head 17.4789 1.98563 -1.86224
rclavicle -5.58336e-014 8.74653e-015
rhumerus -14.0635 22.682 -98.6515
rradius 47.8354
rwrist -49.5817
rhand -33.09 -8.30426
rfingers 7.12502
rthumb -6.30109 -38.1905
lclavicle -5.58336e-014 8.74653e-015
lhumerus -8.67832 -45.5112 104.794
lradius 43.0993
lwrist 48.6853
lhand -5.36326 62.5259
lfingers 7.12502
lthumb -159.556 88.5304
rfemur -34.4029 0.525588 16.6317
rtibia 27.845
rfoot -7.39911 -2.2974
rtoes -7.17126
lfemur -31.4475 7.23804 -9.27856
ltibia 28.1992
lfoot -9.90043 3.66743
ltoes -19.4917
194
root -10.8527 17.9539 4.66515 -2.34501 76.9708 -21.5498
lowerback 3.8721 0.968128 -3.29699
upperback 5.47508 1.30386 3.06508
thorax 3.35079 0.52012 5.02303
lowerneck -12.5262 0.534557 1.92588
upperneck 41.2575 4.67693 -5.53642
head 17.4795 1.99731 -1.88389
rclavicle 3.12589e-014 2.29099e-014
rhumerus -14.0577 22.6566 -98.6519
rradius 47.7737
rwrist -49.5441
rhand -33.0908 -8.37332
rfingers 7.12502
rthumb -6.30192 -38.2596
lclavicle 3.12589e-014 2.29099e-014
lhumerus -8.62325 -45.3813 104.774
lradius 43.0014
lwrist 48.4587
lhand -5.15154 62.1294
lfingers 7.12502
lthumb -159.352 88.9489
rfemur -34.3899 0.499767 16.5661
rtibia 27.8751
rfoot -7.45162 -2.32657
rtoes -7.58277
lfemur -31.3265 7.00699 -9.20914
ltibia 28.1579
lfoot -10.0767 3.56993
ltoes -17.559
